<svg viewBox="0 0 201 92" fill="none" xmlns="http://www.w3.org/2000/svg">
<path d="M42.2536 87V78.1914H40.6423V76.4336H42.2536V75.4668C42.2536 74.2949 42.5791 73.39 43.2302 72.752C43.8812 72.1139 44.7927 71.7949 45.9645 71.7949C46.3812 71.7949 46.8239 71.8535 47.2927 71.9707L47.2341 73.8262C46.9736 73.7741 46.6709 73.748 46.3259 73.748C45.193 73.748 44.6266 74.3307 44.6266 75.4961V76.4336H46.7751V78.1914H44.6266V87H42.2536ZM47.8241 81.6191C47.8241 80.584 48.0292 79.653 48.4394 78.8262C48.8495 77.9928 49.4257 77.3548 50.1679 76.9121C50.9101 76.4629 51.7629 76.2383 52.7265 76.2383C54.1523 76.2383 55.3079 76.6973 56.1933 77.6152C57.0852 78.5332 57.567 79.7507 57.6386 81.2676L57.6484 81.8242C57.6484 82.8659 57.4465 83.7969 57.0429 84.6172C56.6458 85.4375 56.0728 86.0723 55.3241 86.5215C54.582 86.9707 53.7226 87.1953 52.746 87.1953C51.2551 87.1953 50.0605 86.7005 49.162 85.7109C48.2701 84.7148 47.8241 83.39 47.8241 81.7363V81.6191ZM50.1972 81.8242C50.1972 82.9115 50.4218 83.7643 50.871 84.3828C51.3202 84.9948 51.9452 85.3008 52.746 85.3008C53.5468 85.3008 54.1685 84.9883 54.6112 84.3633C55.0605 83.7383 55.2851 82.8236 55.2851 81.6191C55.2851 80.5514 55.054 79.7051 54.5917 79.0801C54.136 78.4551 53.5142 78.1426 52.7265 78.1426C51.9517 78.1426 51.3365 78.4518 50.8808 79.0703C50.4251 79.6823 50.1972 80.6003 50.1972 81.8242ZM64.9474 78.6016C64.6349 78.5495 64.3127 78.5234 63.9806 78.5234C62.8934 78.5234 62.161 78.9401 61.7834 79.7734V87H59.4103V76.4336H61.6759L61.7345 77.6152C62.3074 76.6973 63.1017 76.2383 64.1173 76.2383C64.4559 76.2383 64.7358 76.2839 64.9572 76.375L64.9474 78.6016ZM74.3795 72.7812L78.4811 83.6797L82.5729 72.7812H85.7663V87H83.3053V82.3125L83.5495 76.043L79.3502 87H77.5827L73.3932 76.0527L73.6373 82.3125V87H71.1764V72.7812H74.3795ZM94.5399 87C94.4358 86.7982 94.3446 86.4694 94.2665 86.0137C93.5113 86.8014 92.5868 87.1953 91.493 87.1953C90.4318 87.1953 89.566 86.8926 88.8954 86.2871C88.2248 85.6816 87.8895 84.9329 87.8895 84.041C87.8895 82.9147 88.3062 82.0521 89.1395 81.4531C89.9794 80.8477 91.1773 80.5449 92.7333 80.5449H94.1884V79.8516C94.1884 79.3047 94.0354 78.8685 93.7294 78.543C93.4234 78.2109 92.9579 78.0449 92.3329 78.0449C91.7925 78.0449 91.3498 78.1816 91.0048 78.4551C90.6597 78.722 90.4872 79.0638 90.4872 79.4805H88.1141C88.1141 78.901 88.3062 78.3607 88.6903 77.8594C89.0744 77.3516 89.5953 76.9544 90.2528 76.668C90.9169 76.3815 91.6558 76.2383 92.4696 76.2383C93.7066 76.2383 94.6929 76.5508 95.4286 77.1758C96.1643 77.7943 96.5419 78.6667 96.5614 79.793V84.5586C96.5614 85.5091 96.6949 86.2676 96.9618 86.834V87H94.5399ZM91.9325 85.291C92.4012 85.291 92.8407 85.1771 93.2509 84.9492C93.6675 84.7214 93.98 84.4154 94.1884 84.0312V82.0391H92.9091C92.0302 82.0391 91.3693 82.1921 90.9266 82.498C90.4839 82.804 90.2626 83.237 90.2626 83.7969C90.2626 84.2526 90.4123 84.6172 90.7118 84.8906C91.0178 85.1576 91.4247 85.291 91.9325 85.291ZM101.009 76.4336L101.077 77.6543C101.859 76.7103 102.884 76.2383 104.153 76.2383C106.354 76.2383 107.474 77.498 107.513 80.0176V87H105.14V80.1543C105.14 79.4837 104.993 78.9889 104.7 78.6699C104.414 78.3444 103.942 78.1816 103.284 78.1816C102.327 78.1816 101.614 78.6146 101.146 79.4805V87H98.7726V76.4336H101.009ZM116.013 87C115.909 86.7982 115.818 86.4694 115.74 86.0137C114.984 86.8014 114.06 87.1953 112.966 87.1953C111.905 87.1953 111.039 86.8926 110.369 86.2871C109.698 85.6816 109.363 84.9329 109.363 84.041C109.363 82.9147 109.779 82.0521 110.613 81.4531C111.452 80.8477 112.65 80.5449 114.206 80.5449H115.661V79.8516C115.661 79.3047 115.508 78.8685 115.202 78.543C114.897 78.2109 114.431 78.0449 113.806 78.0449C113.266 78.0449 112.823 78.1816 112.478 78.4551C112.133 78.722 111.96 79.0638 111.96 79.4805H109.587C109.587 78.901 109.779 78.3607 110.163 77.8594C110.548 77.3516 111.068 76.9544 111.726 76.668C112.39 76.3815 113.129 76.2383 113.943 76.2383C115.18 76.2383 116.166 76.5508 116.902 77.1758C117.637 77.7943 118.015 78.6667 118.035 79.793V84.5586C118.035 85.5091 118.168 86.2676 118.435 86.834V87H116.013ZM113.406 85.291C113.874 85.291 114.314 85.1771 114.724 84.9492C115.141 84.7214 115.453 84.4154 115.661 84.0312V82.0391H114.382C113.503 82.0391 112.842 82.1921 112.4 82.498C111.957 82.804 111.736 83.237 111.736 83.7969C111.736 84.2526 111.885 84.6172 112.185 84.8906C112.491 85.1576 112.898 85.291 113.406 85.291ZM119.865 81.6387C119.865 79.998 120.249 78.6895 121.017 77.7129C121.792 76.7298 122.817 76.2383 124.093 76.2383C125.298 76.2383 126.245 76.6582 126.935 77.498L127.043 76.4336H129.181V86.6777C129.181 88.0645 128.748 89.1582 127.882 89.959C127.023 90.7598 125.861 91.1602 124.396 91.1602C123.621 91.1602 122.863 90.9974 122.121 90.6719C121.385 90.3529 120.825 89.9329 120.441 89.4121L121.564 87.9863C122.293 88.8522 123.192 89.2852 124.259 89.2852C125.047 89.2852 125.669 89.0703 126.125 88.6406C126.58 88.2174 126.808 87.5924 126.808 86.7656V86.0527C126.125 86.8145 125.213 87.1953 124.074 87.1953C122.837 87.1953 121.824 86.7038 121.037 85.7207C120.255 84.7376 119.865 83.377 119.865 81.6387ZM122.228 81.8438C122.228 82.9049 122.443 83.7415 122.873 84.3535C123.309 84.959 123.911 85.2617 124.679 85.2617C125.636 85.2617 126.346 84.8516 126.808 84.0312V79.3828C126.359 78.582 125.656 78.1816 124.699 78.1816C123.918 78.1816 123.309 78.4909 122.873 79.1094C122.443 79.7279 122.228 80.6393 122.228 81.8438ZM136.041 87.1953C134.537 87.1953 133.316 86.7233 132.379 85.7793C131.448 84.8288 130.982 83.5658 130.982 81.9902V81.6973C130.982 80.6426 131.184 79.7018 131.588 78.875C131.998 78.0417 132.571 77.3939 133.306 76.9316C134.042 76.4694 134.862 76.2383 135.767 76.2383C137.206 76.2383 138.316 76.6973 139.097 77.6152C139.885 78.5332 140.279 79.832 140.279 81.5117V82.4688H133.375C133.446 83.3411 133.736 84.0312 134.244 84.5391C134.758 85.0469 135.403 85.3008 136.178 85.3008C137.265 85.3008 138.15 84.8613 138.834 83.9824L140.113 85.2031C139.69 85.8346 139.124 86.3262 138.414 86.6777C137.711 87.0228 136.92 87.1953 136.041 87.1953ZM135.758 78.1426C135.107 78.1426 134.579 78.3704 134.176 78.8262C133.778 79.2819 133.525 79.9167 133.414 80.7305H137.935V80.5547C137.883 79.7604 137.672 79.1615 137.301 78.7578C136.93 78.3477 136.415 78.1426 135.758 78.1426ZM147.422 78.6016C147.109 78.5495 146.787 78.5234 146.455 78.5234C145.368 78.5234 144.635 78.9401 144.258 79.7734V87H141.885V76.4336H144.15L144.209 77.6152C144.782 76.6973 145.576 76.2383 146.592 76.2383C146.93 76.2383 147.21 76.2839 147.432 76.375L147.422 78.6016ZM154.604 84.1289C154.604 83.7057 154.428 83.3835 154.076 83.1621C153.731 82.9408 153.155 82.7454 152.348 82.5762C151.541 82.4069 150.867 82.1921 150.326 81.9316C149.142 81.3587 148.549 80.5286 148.549 79.4414C148.549 78.5299 148.933 77.7682 149.701 77.1562C150.47 76.5443 151.446 76.2383 152.631 76.2383C153.894 76.2383 154.913 76.5508 155.688 77.1758C156.469 77.8008 156.86 78.6113 156.86 79.6074H154.487C154.487 79.1517 154.317 78.7741 153.979 78.4746C153.64 78.1686 153.191 78.0156 152.631 78.0156C152.11 78.0156 151.684 78.1361 151.352 78.377C151.026 78.6178 150.864 78.9401 150.864 79.3438C150.864 79.7083 151.017 79.9915 151.323 80.1934C151.629 80.3952 152.247 80.6003 153.178 80.8086C154.109 81.0104 154.838 81.2546 155.366 81.541C155.899 81.821 156.293 82.1595 156.547 82.5566C156.808 82.9538 156.938 83.4355 156.938 84.002C156.938 84.9525 156.544 85.724 155.756 86.3164C154.968 86.9023 153.937 87.1953 152.66 87.1953C151.795 87.1953 151.023 87.0391 150.346 86.7266C149.669 86.4141 149.142 85.9844 148.764 85.4375C148.386 84.8906 148.198 84.3014 148.198 83.6699H150.502C150.535 84.2298 150.746 84.6628 151.137 84.9688C151.528 85.2682 152.045 85.418 152.69 85.418C153.315 85.418 153.79 85.3008 154.116 85.0664C154.441 84.8255 154.604 84.513 154.604 84.1289Z" fill="#ABABAB"/>
<path d="M60.4358 11.9431H54.6046V17.9381H60.4358V11.9431Z" fill="#02C2A8"/>
<path d="M74.2214 17.2345V27.3862H89.7149V32.6299H74.2214V46.9702H68.2671V12.0387H91.6843V17.2345H74.2214Z" fill="black"/>
<path d="M110.809 23.9488C112.717 25.7394 113.671 28.4573 113.671 32.0702V46.9701H108.27V43.8686C107.563 44.9876 106.563 45.8349 105.27 46.4106C103.978 47.0019 102.408 47.2898 100.577 47.2898C98.7465 47.2898 97.1466 46.9701 95.7617 46.3146C94.3925 45.6591 93.3309 44.7638 92.5769 43.5968C91.823 42.4457 91.4537 41.1349 91.4537 39.6639C91.4537 37.3779 92.2692 35.5393 93.9 34.1646C95.5309 32.7896 98.1158 32.0861 101.624 32.0861H107.947V31.7025C107.947 29.928 107.44 28.5531 106.409 27.6099C105.378 26.6507 103.87 26.187 101.855 26.187C100.485 26.187 99.1312 26.4109 97.7927 26.8584C96.4696 27.3062 95.3463 27.9296 94.4232 28.713L92.1769 24.3804C93.4538 23.3573 95.0079 22.59 96.808 22.0464C98.6082 21.5029 100.516 21.231 102.532 21.231C106.147 21.2471 108.901 22.1423 110.809 23.9488ZM105.578 41.9501C106.686 41.2628 107.486 40.2876 107.932 39.0246V36.0669H102.024C98.7312 36.0669 97.0696 37.2021 97.0696 39.4562C97.0696 40.5274 97.485 41.3906 98.3005 42.03C99.1313 42.6696 100.27 42.9893 101.731 42.9893C103.193 42.9733 104.47 42.6216 105.578 41.9501Z" fill="black"/>
<path d="M201 21.231V26.8905C200.508 26.7945 200.063 26.7465 199.677 26.7465C197.446 26.7465 195.708 27.4179 194.446 28.7769C193.199 30.1198 192.569 32.0702 192.569 34.6121V46.938H186.846V21.5188H192.291V25.2278C193.938 22.5579 196.847 21.231 201 21.231Z" fill="black"/>
<path d="M129.302 47.3059C122.24 47.3059 116.486 41.3269 116.486 33.9889C116.486 26.6509 122.24 20.6717 129.302 20.6717C133.564 20.6717 137.534 22.8619 139.934 26.5389L135.657 29.5444C134.226 27.3383 131.856 26.0273 129.302 26.0273C125.071 26.0273 121.64 29.5924 121.64 33.9889C121.64 38.3852 125.071 41.9503 129.302 41.9503C131.949 41.9503 134.364 40.5594 135.78 38.2414L140.134 41.103C137.78 44.9878 133.733 47.3059 129.302 47.3059Z" fill="black"/>
<path d="M171.183 47.3059C164.121 47.3059 158.366 41.3269 158.366 33.9889C158.366 26.6509 164.121 20.6717 171.183 20.6717C178.245 20.6717 183.999 26.6509 183.999 33.9889C183.999 41.3269 178.26 47.3059 171.183 47.3059ZM171.183 26.0273C166.952 26.0273 163.521 29.5924 163.521 33.9889C163.521 38.3852 166.952 41.9503 171.183 41.9503C175.414 41.9503 178.845 38.3852 178.845 33.9889C178.845 29.5924 175.414 26.0273 171.183 26.0273Z" fill="black"/>
<path d="M153.627 39.888C152.458 41.8065 150.812 41.5027 150.335 41.3587C149.873 41.2149 148.365 40.5915 148.365 38.4812V26.475H155.058V21.5829H148.365V15.8436H142.765V38.4812C142.765 42.4618 145.181 45.8672 148.781 46.9541C149.566 47.1939 150.366 47.3059 151.15 47.3059C153.997 47.3059 156.689 45.7552 158.366 43.0054L153.627 39.888Z" fill="black"/>
<path d="M60.4358 22.2709H54.6046V46.9706H60.4358V22.2709Z" fill="black"/>
<path d="M10.2008 46.1074H0V56.7068H10.2008V46.1074Z" fill="#02C2A8"/>
<path d="M37.849 39.5046H0V30.8558L23.8634 30.8717L19.0168 21.8711C18.7091 21.2796 18.7244 20.5922 19.0321 20.0805L23.8172 11.1918H0.0153861V2.54289H37.849C38.7875 2.54289 39.3107 3.53409 38.7261 4.44534C38.7261 4.44534 32.2793 16.3236 30.2023 20.1445C29.9561 20.5922 29.9101 21.2955 30.2023 21.8231C32.3562 25.7719 38.7415 37.6661 38.7415 37.6661C39.28 38.4975 38.7875 39.5046 37.849 39.5046Z" fill="#02C2A8"/>
</svg>
