<svg width="55" height="15" viewBox="0 0 55 15" fill="none" fill-rule="evenodd" clip-rule="evenodd" xmlns="http://www.w3.org/2000/svg">
<path fill-rule="evenodd" clip-rule="evenodd" d="M20.6997 13.216C22.0077 13.216 23.1837 12.934 24.2277 12.37C25.2717 11.806 26.0937 11.029 26.6937 10.039C27.2937 9.04899 27.5937 7.93599 27.5937 6.69999C27.5937 5.46399 27.2937 4.35099 26.6937 3.36099C26.0937 2.37099 25.2717 1.59399 24.2277 1.02999C23.1837 0.46599 22.0077 0.18399 20.6997 0.18399C19.3917 0.18399 18.2127 0.46599 17.1627 1.02999C16.1127 1.59399 15.2907 2.37099 14.6967 3.36099C14.1027 4.35099 13.8057 5.46399 13.8057 6.69999C13.8057 7.93599 14.1027 9.04899 14.6967 10.039C15.2907 11.029 16.1127 11.806 17.1627 12.37C18.2127 12.934 19.3917 13.216 20.6997 13.216ZM2.96971 13V7.83399H8.69371V13H11.6097V0.39999H8.69371V5.36799H2.96971V0.39999H0.0537109V13H2.96971ZM18.6837 10.219C19.2837 10.561 19.9557 10.732 20.6997 10.732C21.4437 10.732 22.1157 10.561 22.7157 10.219C23.3157 9.87699 23.7867 9.39999 24.1287 8.78799C24.4707 8.17599 24.6417 7.47999 24.6417 6.69999C24.6417 5.91999 24.4707 5.22399 24.1287 4.61199C23.7867 3.99999 23.3157 3.52299 22.7157 3.18099C22.1157 2.83899 21.4437 2.66799 20.6997 2.66799C19.9557 2.66799 19.2837 2.83899 18.6837 3.18099C18.0837 3.52299 17.6127 3.99999 17.2707 4.61199C16.9287 5.22399 16.7577 5.91999 16.7577 6.69999C16.7577 7.47999 16.9287 8.17599 17.2707 8.78799C17.6127 9.39999 18.0837 9.87699 18.6837 10.219ZM41.4897 0.39999H38.5917L34.7037 9.39999L30.8697 0.39999H27.7197L33.1557 13H36.0357L41.4897 0.39999ZM52.4697 13.423C51.4137 14.437 49.9557 14.944 48.0957 14.944C47.0277 14.944 46.0497 14.797 45.1617 14.503C44.2737 14.209 43.5177 13.792 42.8937 13.252L44.0277 11.092C45.1677 12.016 46.4997 12.478 48.0237 12.478C49.0797 12.478 49.8627 12.211 50.3727 11.677C50.8827 11.143 51.1377 10.318 51.1377 9.20199V8.42799C50.2977 9.45999 49.1097 9.97599 47.5737 9.97599C45.9777 9.97599 44.7507 9.52299 43.8927 8.61699C43.0347 7.71099 42.6057 6.40599 42.6057 4.70199V0.39999H45.5217V4.52199C45.5217 5.50599 45.7557 6.24999 46.2237 6.75399C46.6917 7.25799 47.3517 7.50999 48.2037 7.50999C49.1037 7.50999 49.8177 7.24599 50.3457 6.71799C50.8737 6.18999 51.1377 5.39199 51.1377 4.32399V0.39999H54.0537V9.05799C54.0537 10.954 53.5257 12.409 52.4697 13.423Z" />
</svg>
