<svg width="24" height="24" viewBox="0 0 24 24" fill="none" xmlns="http://www.w3.org/2000/svg">
<path fill-rule="evenodd" clip-rule="evenodd" d="M9.52336 2.39416C10.0484 1.5286 10.9873 1 11.9996 1C13.012 1 13.9509 1.5286 14.478 2.39769L23.6119 17.6461C24.1265 18.5373 24.1296 19.6346 23.6199 20.5286C23.1103 21.4227 22.1646 21.9791 21.1275 21.9905L2.86366 21.9905C1.83465 21.9791 0.888915 21.4227 0.379314 20.5286C-0.130287 19.6346 -0.127214 18.5373 0.393403 17.6359L9.52336 2.39416ZM13.209 3.16266C12.9526 2.73994 12.494 2.48179 11.9996 2.48179C11.5052 2.48179 11.0467 2.73994 10.7924 3.15914L1.6706 18.3871C1.41929 18.8223 1.41779 19.3582 1.66666 19.7948C1.91553 20.2315 2.3774 20.5032 2.8718 20.5087L21.1193 20.5088C21.6219 20.5032 22.0837 20.2315 22.3326 19.7948C22.5815 19.3582 22.58 18.8223 22.3347 18.3973L13.209 3.16266ZM11.9996 7.57672C12.3847 7.57672 12.7012 7.87055 12.7371 8.24626L12.7405 8.31761V12.6283C12.7405 13.0375 12.4088 13.3692 11.9996 13.3692C11.6145 13.3692 11.298 13.0753 11.2621 12.6996L11.2587 12.6283V8.31761C11.2587 7.90843 11.5904 7.57672 11.9996 7.57672ZM12.9983 16.445C12.9983 15.8994 12.556 15.4572 12.0104 15.4572L11.9259 15.4599C11.4148 15.4976 11.0118 15.9242 11.0118 16.445C11.0118 16.9906 11.4541 17.4329 11.9996 17.4329L12.0841 17.4302C12.5953 17.3925 12.9983 16.9658 12.9983 16.445Z" fill="white"/>
<mask id="mask0" mask-type="alpha" maskUnits="userSpaceOnUse" x="0" y="1" width="24" height="21">
<path fill-rule="evenodd" clip-rule="evenodd" d="M9.52336 2.39416C10.0484 1.5286 10.9873 1 11.9996 1C13.012 1 13.9509 1.5286 14.478 2.39769L23.6119 17.6461C24.1265 18.5373 24.1296 19.6346 23.6199 20.5286C23.1103 21.4227 22.1646 21.9791 21.1275 21.9905L2.86366 21.9905C1.83465 21.9791 0.888915 21.4227 0.379314 20.5286C-0.130287 19.6346 -0.127214 18.5373 0.393403 17.6359L9.52336 2.39416ZM13.209 3.16266C12.9526 2.73994 12.494 2.48179 11.9996 2.48179C11.5052 2.48179 11.0467 2.73994 10.7924 3.15914L1.6706 18.3871C1.41929 18.8223 1.41779 19.3582 1.66666 19.7948C1.91553 20.2315 2.3774 20.5032 2.8718 20.5087L21.1193 20.5088C21.6219 20.5032 22.0837 20.2315 22.3326 19.7948C22.5815 19.3582 22.58 18.8223 22.3347 18.3973L13.209 3.16266ZM11.9996 7.57672C12.3847 7.57672 12.7012 7.87055 12.7371 8.24626L12.7405 8.31761V12.6283C12.7405 13.0375 12.4088 13.3692 11.9996 13.3692C11.6145 13.3692 11.298 13.0753 11.2621 12.6996L11.2587 12.6283V8.31761C11.2587 7.90843 11.5904 7.57672 11.9996 7.57672ZM12.9983 16.445C12.9983 15.8994 12.556 15.4572 12.0104 15.4572L11.9259 15.4599C11.4148 15.4976 11.0118 15.9242 11.0118 16.445C11.0118 16.9906 11.4541 17.4329 11.9996 17.4329L12.0841 17.4302C12.5953 17.3925 12.9983 16.9658 12.9983 16.445Z" fill="white"/>
</mask>
<g mask="url(#mask0)">
</g>
</svg>
