<svg width="24" height="24" viewBox="0 0 24 24" fill="none" xmlns="http://www.w3.org/2000/svg">
<path fill-rule="evenodd" clip-rule="evenodd" d="M10.7903 5.6129C11.0953 5.22061 11.0676 4.65338 10.7071 4.29289C10.3166 3.90237 9.68341 3.90237 9.29289 4.29289L2.29348 11.2923L2.29289 11.2929L2.21033 11.3864C2.23607 11.3533 2.26386 11.3219 2.29348 11.2923M2.29325 12.7075L9.29289 19.7071L9.38709 19.7903C9.77938 20.0953 10.3466 20.0676 10.7071 19.7071L10.7903 19.6129C11.0953 19.2206 11.0676 18.6534 10.7071 18.2929L5.41571 13H21L21.1166 12.9933C21.614 12.9355 22 12.5128 22 12C22 11.4477 21.5523 11 21 11H5.41571L10.7071 5.70711L10.7903 5.6129"/>
<mask id="mask0" mask-type="alpha" maskUnits="userSpaceOnUse" x="2" y="4" width="20" height="16">
<path fill-rule="evenodd" clip-rule="evenodd" d="M10.7903 5.6129C11.0953 5.22061 11.0676 4.65338 10.7071 4.29289C10.3166 3.90237 9.68341 3.90237 9.29289 4.29289L2.29348 11.2923L2.29289 11.2929L2.21033 11.3864C2.23607 11.3533 2.26386 11.3219 2.29348 11.2923M2.29325 12.7075L9.29289 19.7071L9.38709 19.7903C9.77938 20.0953 10.3466 20.0676 10.7071 19.7071L10.7903 19.6129C11.0953 19.2206 11.0676 18.6534 10.7071 18.2929L5.41571 13H21L21.1166 12.9933C21.614 12.9355 22 12.5128 22 12C22 11.4477 21.5523 11 21 11H5.41571L10.7071 5.70711L10.7903 5.6129"/>
</mask>
<g mask="url(#mask0)">
</g>
</svg>
