<svg fill="none" height="24" viewBox="0 0 24 24" width="24" xmlns="http://www.w3.org/2000/svg"><mask height="16" maskUnits="userSpaceOnUse" width="16" x="4" y="4"><path clip-rule="evenodd" d="m19.7903 5.6129c.305-.39229.2773-.95952-.0832-1.32001-.3905-.39052-1.0237-.39052-1.4142 0l-6.2929 6.29291-6.29289-6.29291c-.39053-.39052-1.02369-.39052-1.41422 0-.36048.36049-.38821.92772-.08319 1.32001l.08319.09421 6.29291 6.29289-6.29291 6.2929-.08319.0942c-.30502.3923-.27729.9595.08319 1.32.39053.3905 1.02369.3905 1.41422 0l6.29289-6.2929 6.2929 6.2929c.3905.3905 1.0237.3905 1.4142 0 .3605-.3605.3882-.9277.0832-1.32l-.0832-.0942-6.2929-6.2929 6.2929-6.29289z" fill="none"/></mask><path clip-rule="evenodd" d="m19.7903 5.6129c.305-.39229.2773-.95952-.0832-1.32001-.3905-.39052-1.0237-.39052-1.4142 0l-6.2929 6.29291-6.29289-6.29291c-.39053-.39052-1.02369-.39052-1.41422 0-.36048.36049-.38821.92772-.08319 1.32001l.08319.09421 6.29291 6.29289-6.29291 6.2929-.08319.0942c-.30502.3923-.27729.9595.08319 1.32.39053.3905 1.02369.3905 1.41422 0l6.29289-6.2929 6.2929 6.2929c.3905.3905 1.0237.3905 1.4142 0 .3605-.3605.3882-.9277.0832-1.32l-.0832-.0942-6.2929-6.2929 6.2929-6.29289z" fill-rule="evenodd"/></svg>