<svg width="24" height="24" viewBox="0 0 24 24" fill="none" xmlns="http://www.w3.org/2000/svg">
<path fill-rule="evenodd" clip-rule="evenodd" d="M12.3386 3.82977C13.4445 2.7233 14.9229 2.07472 16.4792 2.00607L16.7546 2C18.411 2 19.9995 2.65822 21.1702 3.82945C22.3418 5.00046 23 6.58901 23 8.24545C23 9.90188 22.3418 11.4904 21.1704 12.6613L12.679 21.1527C12.3038 21.5278 11.6956 21.5278 11.3205 21.1527L2.8291 12.6613C0.390301 10.2225 0.390301 6.26841 2.8291 3.82961C5.2679 1.39081 9.22197 1.39081 11.6608 3.82961L11.9997 4.16783L12.3386 3.82977ZM19.8118 5.1879C19.0011 4.37683 17.9013 3.92114 16.7546 3.92114C15.6078 3.92114 14.508 4.37683 13.6972 5.18806L12.679 6.20626C12.3038 6.58139 11.6956 6.58139 11.3205 6.20626L10.3023 5.18806C8.61377 3.49951 5.87609 3.49951 4.18755 5.18806C2.499 6.87661 2.499 9.61428 4.18755 11.3028L11.9997 19.1143L19.8121 11.3027C20.5691 10.546 21.0165 9.53756 21.0728 8.4741L21.0789 8.24545C21.0789 7.09868 20.6232 5.99891 19.8118 5.1879Z" />
<mask id="mask0" mask-type="alpha" maskUnits="userSpaceOnUse" x="1" y="2" width="22" height="20">
<path fill-rule="evenodd" clip-rule="evenodd" d="M12.3386 3.82977C13.4445 2.7233 14.9229 2.07472 16.4792 2.00607L16.7546 2C18.411 2 19.9995 2.65822 21.1702 3.82945C22.3418 5.00046 23 6.58901 23 8.24545C23 9.90188 22.3418 11.4904 21.1704 12.6613L12.679 21.1527C12.3038 21.5278 11.6956 21.5278 11.3205 21.1527L2.8291 12.6613C0.390301 10.2225 0.390301 6.26841 2.8291 3.82961C5.2679 1.39081 9.22197 1.39081 11.6608 3.82961L11.9997 4.16783L12.3386 3.82977ZM19.8118 5.1879C19.0011 4.37683 17.9013 3.92114 16.7546 3.92114C15.6078 3.92114 14.508 4.37683 13.6972 5.18806L12.679 6.20626C12.3038 6.58139 11.6956 6.58139 11.3205 6.20626L10.3023 5.18806C8.61377 3.49951 5.87609 3.49951 4.18755 5.18806C2.499 6.87661 2.499 9.61428 4.18755 11.3028L11.9997 19.1143L19.8121 11.3027C20.5691 10.546 21.0165 9.53756 21.0728 8.4741L21.0789 8.24545C21.0789 7.09868 20.6232 5.99891 19.8118 5.1879Z" />
</mask>
<g mask="url(#mask0)">
</g>
</svg>
