<svg fill="none" height="24" viewBox="0 0 24 24" width="24" xmlns="http://www.w3.org/2000/svg" xmlns:xlink="http://www.w3.org/1999/xlink"><mask id="a" height="20" maskUnits="userSpaceOnUse" width="22" x="1" y="2"><path d="m16.4792 2.00607c-1.5563.06865-3.0347.71723-4.1406 1.8237l-.3389.33806-.3389-.33822c-2.43883-2.4388-6.3929-2.4388-8.8317 0-2.438799 2.4388-2.438799 6.39289 0 8.83169l8.4914 8.4914c.3751.3751.9833.3751 1.3585 0l8.4914-8.4914c1.1714-1.1709 1.8296-2.75942 1.8296-4.41585 0-1.65644-.6582-3.24499-1.8298-4.416-1.1707-1.17123-2.7592-1.82945-4.4156-1.82945z" fill="#fff"/></mask><path d="m16.4792 2.00607c-1.5563.06865-3.0347.71723-4.1406 1.8237l-.3389.33806-.3389-.33822c-2.43883-2.4388-6.3929-2.4388-8.8317 0-2.438799 2.4388-2.438799 6.39289 0 8.83169l8.4914 8.4914c.3751.3751.9833.3751 1.3585 0l8.4914-8.4914c1.1714-1.1709 1.8296-2.75942 1.8296-4.41585 0-1.65644-.6582-3.24499-1.8298-4.416-1.1707-1.17123-2.7592-1.82945-4.4156-1.82945z" fill="#fff"/><g mask="url(#a)"><path d="m-63-63h150v150h-150z" fill="#f94c4c"/></g></svg>