<svg width="24" height="24" viewBox="0 0 24 24" fill="none" fill-rule="evenodd" clip-rule="evenodd" xmlns="http://www.w3.org/2000/svg">
<path fill-rule="evenodd" clip-rule="evenodd" d="M17.1058 0C18.6672 0 19.9404 1.22219 19.998 2.77077L20 2.8722L20 21.1114C19.9958 22.6327 18.8162 23.8833 17.3123 23.9903L17.2093 23.9958L16.9747 24L6.89418 23.9968C5.37122 23.9968 4.12187 22.8201 4.00836 21.3245L4.00239 21.222L4 21.1187V2.87184C4.00422 1.35053 5.18377 0.107021 6.68769 0H6.79073H6.89418H17.1058ZM6.89418 0.923248L17.1134 0.924093C18.1586 0.924093 19.0115 1.74713 19.0594 2.78049L19.0615 2.8722V19H4.93847L4.93847 2.87081C4.943 1.79395 5.81705 0.923248 6.89418 0.923248ZM19.0615 21.1584L19.0615 20H4.93847V21.1579L4.94109 21.252C4.99265 22.2501 5.79264 23.0544 6.79692 23.1036L6.89097 23.1059L17.1058 23.106L17.1976 23.1038C18.2322 23.056 19.0571 22.2045 19.0615 21.1584ZM14.5491 20.7966V22.005H9.66122V20.7966H14.5491ZM12.4685 13.1259C12.3984 13.0114 12.2691 12.9359 12.1263 12.9359C11.9202 12.9359 11.7507 13.0907 11.7275 13.2905L11.7248 13.3374L11.7267 13.3756C11.7867 13.6275 11.8161 13.8798 11.8161 14.1331L11.8095 14.3361L11.7968 14.5331C11.765 14.9258 11.6964 15.309 11.5956 15.6587C11.5569 15.7923 11.5868 15.9903 11.7894 16.1056C11.8439 16.1362 11.9064 16.1544 11.973 16.1563L12.0377 16.1498L12.0902 16.1365C12.2088 16.0984 12.3 16.0135 12.344 15.9041L12.4038 15.6947L12.4542 15.4765C12.5478 15.0386 12.5982 14.5909 12.6046 14.1341C12.6118 13.8142 12.5788 13.5035 12.5027 13.1991L12.4919 13.1706L12.4685 13.1259ZM12.0857 11.3295C12.867 11.3295 13.5329 11.8763 13.6969 12.6323L13.7131 12.7172L13.7474 12.8635C13.8956 13.5517 13.8913 14.3328 13.7374 15.1722C13.6878 15.4164 13.5567 15.572 13.3359 15.572C13.2437 15.572 13.1586 15.5408 13.0908 15.4884C13.0229 15.436 12.9104 15.3136 12.937 15.1259C12.937 15.1114 12.9444 15.0819 12.9444 15.0819L12.9513 15.0562L12.982 14.8729C13.0756 14.2649 13.0813 13.707 13.0006 13.204L12.9705 13.0384L12.9375 12.8914C12.8425 12.5129 12.506 12.2456 12.1153 12.2456C11.6477 12.2456 11.2683 12.6247 11.2683 13.0926C11.2683 13.1244 11.27 13.1558 11.2732 13.1855L11.2789 13.2286L11.2922 13.2939C11.4348 13.8641 11.3704 14.6167 11.102 15.5294C11.0442 15.7044 10.8869 15.7768 10.8216 15.7938C10.8216 15.7938 10.7336 15.8152 10.6826 15.8086C10.6316 15.802 10.6004 15.7922 10.6004 15.7922C10.4367 15.7397 10.3243 15.5896 10.3243 15.4164C10.3243 15.388 10.3272 15.3603 10.3329 15.3335L10.3437 15.2938L10.3443 15.2914C10.4498 15.0067 10.5189 14.6938 10.5468 14.3702L10.5573 14.2076L10.5608 14.0438C10.5608 13.8953 10.5522 13.7485 10.5351 13.6033L10.5193 13.4908L10.4929 13.4042C10.4748 13.3369 10.461 13.2669 10.4516 13.1955L10.4411 13.0873L10.4375 12.9777C10.4375 12.0674 11.1754 11.3295 12.0857 11.3295ZM14.8877 11.8926C14.5785 10.6093 13.4251 9.6844 12.0815 9.6844C10.4875 9.6844 9.19494 10.9767 9.19494 12.571L9.19838 12.7134L9.20858 12.8546C9.22212 12.995 9.24558 13.1323 9.27822 13.2631L9.31104 13.3815L9.31855 13.4502C9.32397 13.5107 9.32671 13.5714 9.32671 13.6319L9.32248 13.7628L9.3131 13.8661C9.29711 14.0027 9.26729 14.1345 9.22501 14.2562L9.22074 14.2697L9.21348 14.3142L9.21099 14.3592L9.21369 14.4059L9.21749 14.4285C9.21749 14.4285 9.24267 14.509 9.28766 14.5829C9.33266 14.6569 9.40442 14.7027 9.40442 14.7027C9.46489 14.7395 9.5358 14.7607 9.6116 14.7607C9.77673 14.7562 9.9172 14.6564 9.97712 14.509L9.99404 14.4582L10.0249 14.3268C10.1208 13.8965 10.1472 13.5439 10.1012 13.2756L10.0646 13.1068L10.047 13.0063C10.0319 12.9048 10.024 12.8006 10.024 12.696C10.024 11.5411 10.9604 10.6047 12.1153 10.6047C13.0817 10.6047 13.9127 11.2644 14.1472 12.1991C14.2435 12.6431 14.2936 13.0991 14.2936 13.5491L14.2988 13.6052L14.3116 13.6569C14.3639 13.8242 14.5109 13.9379 14.6836 13.9429C14.9102 13.943 15.0889 13.7643 15.0889 13.5415C15.0965 13.0354 15.0371 12.5221 14.9129 12.0088L14.8877 11.8926ZM12.1119 8.16939C13.9034 8.16939 15.471 9.31957 16.0319 10.9889L16.0686 11.1035L16.0774 11.1373C16.083 11.1623 16.0856 11.1894 16.0856 11.2173C16.0856 11.4392 15.9061 11.6188 15.6842 11.6188C15.5448 11.6188 15.4185 11.5471 15.3469 11.4354L15.3219 11.39L15.3123 11.3509L15.2784 11.2422C14.8486 9.95567 13.6988 9.05368 12.3509 8.95865L12.2315 8.95237L12.1145 8.95034C10.3855 8.95034 8.95368 10.2712 8.79747 11.9777L8.78883 12.0903C8.77711 12.2824 8.62985 12.4357 8.44277 12.4581L8.39522 12.4609H8.38086C8.20308 12.4609 8.05051 12.3428 8.00158 12.169L7.99086 12.1203L7.98701 12.0671L7.98728 12.0434C8.12824 9.86688 9.92844 8.16939 12.1119 8.16939ZM16.2168 8.53072C15.1984 7.33747 13.7146 6.63612 12.1153 6.63612L11.9594 6.63835L11.8044 6.64499C10.207 6.73634 8.75373 7.52862 7.79536 8.80449L7.79448 8.80599L7.76778 8.84849C7.73577 8.9071 7.71839 8.97307 7.71839 9.04122C7.71839 9.26203 7.89661 9.44141 8.11741 9.44267C8.23605 9.44267 8.32009 9.38111 8.32009 9.38111C8.36427 9.35374 8.40301 9.31779 8.43438 9.27487L8.44365 9.26189L8.53152 9.14933C9.39623 8.07609 10.7017 7.43565 12.1136 7.43565L12.259 7.43791L12.4034 7.44467C13.6518 7.52252 14.796 8.10113 15.606 9.04225L15.6966 9.15098L15.6979 9.15322L15.7327 9.19106C15.8064 9.26182 15.9047 9.30245 16.0102 9.30245C16.1002 9.30245 16.1861 9.27271 16.2552 9.21928C16.4314 9.08779 16.4589 8.83996 16.3245 8.66158L16.317 8.65168L16.2168 8.53072ZM12.1035 5.20116C13.4298 5.20116 14.6989 5.58986 15.7789 6.30539L15.925 6.40498L15.9239 6.40628L15.9377 6.4163C16.06 6.51814 16.1043 6.69172 16.0544 6.84805L16.0343 6.8994L16.0098 6.94436C15.945 7.03337 15.8479 7.09195 15.7393 7.10687L15.6783 7.11063C15.6139 7.11063 15.5518 7.09538 15.4959 7.06685L15.4552 7.04299L15.4645 7.02836L15.4535 7.04213C14.5898 6.437 13.5609 6.07617 12.4769 6.01005L12.2957 6.00177L12.1136 5.999C11.1268 5.999 10.1754 6.24297 9.32831 6.7004L9.17071 6.78866L9.02326 6.87715L8.99636 6.89188C8.94395 6.91621 8.88623 6.92902 8.82686 6.92902C8.70583 6.92902 8.59355 6.87467 8.53013 6.79916L8.50606 6.76559L8.48917 6.74527C8.44579 6.68085 8.42203 6.60536 8.42203 6.52588C8.42203 6.40076 8.48124 6.28591 8.58221 6.20982L8.61906 6.18476C9.64118 5.54893 10.849 5.20116 12.1035 5.20116ZM14.1688 4.03863C13.5035 3.86075 12.8131 3.76958 12.1111 3.76958C11.6196 3.76958 11.1301 3.81382 10.6979 3.89607L10.7207 3.89375L10.6598 3.908C10.5633 3.93686 10.4919 3.99077 10.4422 4.06268C10.3922 4.12025 10.3705 4.19692 10.3715 4.28871L10.3741 4.33406L10.3872 4.38519C10.4439 4.56645 10.5952 4.67808 10.7697 4.67808L10.8004 4.6764L11.0167 4.64025L11.234 4.60988C11.525 4.57382 11.8211 4.5556 12.1204 4.5556L12.3292 4.55857L12.537 4.56743C12.9516 4.59098 13.3581 4.64932 13.7414 4.7393L13.9213 4.7842L14.1551 4.85889L14.2122 4.86439L14.2605 4.86179C14.4659 4.83914 14.6192 4.67127 14.6192 4.46753L14.6158 4.41533L14.6058 4.36501C14.5795 4.26656 14.516 4.18226 14.4292 4.12908L14.3878 4.10705L14.3896 4.10113L14.1688 4.03863Z" />
<mask id="mask0" mask-type="alpha" maskUnits="userSpaceOnUse" x="4" y="0" width="16" height="24">
<path fill-rule="evenodd" clip-rule="evenodd" d="M17.1058 0C18.6672 0 19.9404 1.22219 19.998 2.77077L20 2.8722L20 21.1114C19.9958 22.6327 18.8162 23.8833 17.3123 23.9903L17.2093 23.9958L16.9747 24L6.89418 23.9968C5.37122 23.9968 4.12187 22.8201 4.00836 21.3245L4.00239 21.222L4 21.1187V2.87184C4.00422 1.35053 5.18377 0.107021 6.68769 0H6.79073H6.89418H17.1058ZM6.89418 0.923248L17.1134 0.924093C18.1586 0.924093 19.0115 1.74713 19.0594 2.78049L19.0615 2.8722V19H4.93847L4.93847 2.87081C4.943 1.79395 5.81705 0.923248 6.89418 0.923248ZM19.0615 21.1584L19.0615 20H4.93847V21.1579L4.94109 21.252C4.99265 22.2501 5.79264 23.0544 6.79692 23.1036L6.89097 23.1059L17.1058 23.106L17.1976 23.1038C18.2322 23.056 19.0571 22.2045 19.0615 21.1584ZM14.5491 20.7966V22.005H9.66122V20.7966H14.5491ZM12.4685 13.1259C12.3984 13.0114 12.2691 12.9359 12.1263 12.9359C11.9202 12.9359 11.7507 13.0907 11.7275 13.2905L11.7248 13.3374L11.7267 13.3756C11.7867 13.6275 11.8161 13.8798 11.8161 14.1331L11.8095 14.3361L11.7968 14.5331C11.765 14.9258 11.6964 15.309 11.5956 15.6587C11.5569 15.7923 11.5868 15.9903 11.7894 16.1056C11.8439 16.1362 11.9064 16.1544 11.973 16.1563L12.0377 16.1498L12.0902 16.1365C12.2088 16.0984 12.3 16.0135 12.344 15.9041L12.4038 15.6947L12.4542 15.4765C12.5478 15.0386 12.5982 14.5909 12.6046 14.1341C12.6118 13.8142 12.5788 13.5035 12.5027 13.1991L12.4919 13.1706L12.4685 13.1259ZM12.0857 11.3295C12.867 11.3295 13.5329 11.8763 13.6969 12.6323L13.7131 12.7172L13.7474 12.8635C13.8956 13.5517 13.8913 14.3328 13.7374 15.1722C13.6878 15.4164 13.5567 15.572 13.3359 15.572C13.2437 15.572 13.1586 15.5408 13.0908 15.4884C13.0229 15.436 12.9104 15.3136 12.937 15.1259C12.937 15.1114 12.9444 15.0819 12.9444 15.0819L12.9513 15.0562L12.982 14.8729C13.0756 14.2649 13.0813 13.707 13.0006 13.204L12.9705 13.0384L12.9375 12.8914C12.8425 12.5129 12.506 12.2456 12.1153 12.2456C11.6477 12.2456 11.2683 12.6247 11.2683 13.0926C11.2683 13.1244 11.27 13.1558 11.2732 13.1855L11.2789 13.2286L11.2922 13.2939C11.4348 13.8641 11.3704 14.6167 11.102 15.5294C11.0442 15.7044 10.8869 15.7768 10.8216 15.7938C10.8216 15.7938 10.7336 15.8152 10.6826 15.8086C10.6316 15.802 10.6004 15.7922 10.6004 15.7922C10.4367 15.7397 10.3243 15.5896 10.3243 15.4164C10.3243 15.388 10.3272 15.3603 10.3329 15.3335L10.3437 15.2938L10.3443 15.2914C10.4498 15.0067 10.5189 14.6938 10.5468 14.3702L10.5573 14.2076L10.5608 14.0438C10.5608 13.8953 10.5522 13.7485 10.5351 13.6033L10.5193 13.4908L10.4929 13.4042C10.4748 13.3369 10.461 13.2669 10.4516 13.1955L10.4411 13.0873L10.4375 12.9777C10.4375 12.0674 11.1754 11.3295 12.0857 11.3295ZM14.8877 11.8926C14.5785 10.6093 13.4251 9.6844 12.0815 9.6844C10.4875 9.6844 9.19494 10.9767 9.19494 12.571L9.19838 12.7134L9.20858 12.8546C9.22212 12.995 9.24558 13.1323 9.27822 13.2631L9.31104 13.3815L9.31855 13.4502C9.32397 13.5107 9.32671 13.5714 9.32671 13.6319L9.32248 13.7628L9.3131 13.8661C9.29711 14.0027 9.26729 14.1345 9.22501 14.2562L9.22074 14.2697L9.21348 14.3142L9.21099 14.3592L9.21369 14.4059L9.21749 14.4285C9.21749 14.4285 9.24267 14.509 9.28766 14.5829C9.33266 14.6569 9.40442 14.7027 9.40442 14.7027C9.46489 14.7395 9.5358 14.7607 9.6116 14.7607C9.77673 14.7562 9.9172 14.6564 9.97712 14.509L9.99404 14.4582L10.0249 14.3268C10.1208 13.8965 10.1472 13.5439 10.1012 13.2756L10.0646 13.1068L10.047 13.0063C10.0319 12.9048 10.024 12.8006 10.024 12.696C10.024 11.5411 10.9604 10.6047 12.1153 10.6047C13.0817 10.6047 13.9127 11.2644 14.1472 12.1991C14.2435 12.6431 14.2936 13.0991 14.2936 13.5491L14.2988 13.6052L14.3116 13.6569C14.3639 13.8242 14.5109 13.9379 14.6836 13.9429C14.9102 13.943 15.0889 13.7643 15.0889 13.5415C15.0965 13.0354 15.0371 12.5221 14.9129 12.0088L14.8877 11.8926ZM12.1119 8.16939C13.9034 8.16939 15.471 9.31957 16.0319 10.9889L16.0686 11.1035L16.0774 11.1373C16.083 11.1623 16.0856 11.1894 16.0856 11.2173C16.0856 11.4392 15.9061 11.6188 15.6842 11.6188C15.5448 11.6188 15.4185 11.5471 15.3469 11.4354L15.3219 11.39L15.3123 11.3509L15.2784 11.2422C14.8486 9.95567 13.6988 9.05368 12.3509 8.95865L12.2315 8.95237L12.1145 8.95034C10.3855 8.95034 8.95368 10.2712 8.79747 11.9777L8.78883 12.0903C8.77711 12.2824 8.62985 12.4357 8.44277 12.4581L8.39522 12.4609H8.38086C8.20308 12.4609 8.05051 12.3428 8.00158 12.169L7.99086 12.1203L7.98701 12.0671L7.98728 12.0434C8.12824 9.86688 9.92844 8.16939 12.1119 8.16939ZM16.2168 8.53072C15.1984 7.33747 13.7146 6.63612 12.1153 6.63612L11.9594 6.63835L11.8044 6.64499C10.207 6.73634 8.75373 7.52862 7.79536 8.80449L7.79448 8.80599L7.76778 8.84849C7.73577 8.9071 7.71839 8.97307 7.71839 9.04122C7.71839 9.26203 7.89661 9.44141 8.11741 9.44267C8.23605 9.44267 8.32009 9.38111 8.32009 9.38111C8.36427 9.35374 8.40301 9.31779 8.43438 9.27487L8.44365 9.26189L8.53152 9.14933C9.39623 8.07609 10.7017 7.43565 12.1136 7.43565L12.259 7.43791L12.4034 7.44467C13.6518 7.52252 14.796 8.10113 15.606 9.04225L15.6966 9.15098L15.6979 9.15322L15.7327 9.19106C15.8064 9.26182 15.9047 9.30245 16.0102 9.30245C16.1002 9.30245 16.1861 9.27271 16.2552 9.21928C16.4314 9.08779 16.4589 8.83996 16.3245 8.66158L16.317 8.65168L16.2168 8.53072ZM12.1035 5.20116C13.4298 5.20116 14.6989 5.58986 15.7789 6.30539L15.925 6.40498L15.9239 6.40628L15.9377 6.4163C16.06 6.51814 16.1043 6.69172 16.0544 6.84805L16.0343 6.8994L16.0098 6.94436C15.945 7.03337 15.8479 7.09195 15.7393 7.10687L15.6783 7.11063C15.6139 7.11063 15.5518 7.09538 15.4959 7.06685L15.4552 7.04299L15.4645 7.02836L15.4535 7.04213C14.5898 6.437 13.5609 6.07617 12.4769 6.01005L12.2957 6.00177L12.1136 5.999C11.1268 5.999 10.1754 6.24297 9.32831 6.7004L9.17071 6.78866L9.02326 6.87715L8.99636 6.89188C8.94395 6.91621 8.88623 6.92902 8.82686 6.92902C8.70583 6.92902 8.59355 6.87467 8.53013 6.79916L8.50606 6.76559L8.48917 6.74527C8.44579 6.68085 8.42203 6.60536 8.42203 6.52588C8.42203 6.40076 8.48124 6.28591 8.58221 6.20982L8.61906 6.18476C9.64118 5.54893 10.849 5.20116 12.1035 5.20116ZM14.1688 4.03863C13.5035 3.86075 12.8131 3.76958 12.1111 3.76958C11.6196 3.76958 11.1301 3.81382 10.6979 3.89607L10.7207 3.89375L10.6598 3.908C10.5633 3.93686 10.4919 3.99077 10.4422 4.06268C10.3922 4.12025 10.3705 4.19692 10.3715 4.28871L10.3741 4.33406L10.3872 4.38519C10.4439 4.56645 10.5952 4.67808 10.7697 4.67808L10.8004 4.6764L11.0167 4.64025L11.234 4.60988C11.525 4.57382 11.8211 4.5556 12.1204 4.5556L12.3292 4.55857L12.537 4.56743C12.9516 4.59098 13.3581 4.64932 13.7414 4.7393L13.9213 4.7842L14.1551 4.85889L14.2122 4.86439L14.2605 4.86179C14.4659 4.83914 14.6192 4.67127 14.6192 4.46753L14.6158 4.41533L14.6058 4.36501C14.5795 4.26656 14.516 4.18226 14.4292 4.12908L14.3878 4.10705L14.3896 4.10113L14.1688 4.03863Z"  />
</mask>
<g mask="url(#mask0)">
</g>
</svg>
