<svg fill="none" height="24" viewBox="0 0 24 24" width="24" xmlns="http://www.w3.org/2000/svg" xmlns:xlink="http://www.w3.org/1999/xlink"><mask id="a" height="24" maskUnits="userSpaceOnUse" width="24" x="0" y="0"><path d="m12 0c-6.62742 0-12 5.37258-12 12 0 6.6274 5.37258 12 12 12 6.6274 0 12-5.3726 12-12 0-6.62742-5.3726-12-12-12z" fill="#fff"/></mask><path d="m12 0c-6.62742 0-12 5.37258-12 12 0 6.6274 5.37258 12 12 12 6.6274 0 12-5.3726 12-12 0-6.62742-5.3726-12-12-12z" fill="#fff"/><g mask="url(#a)"><path d="m-63-63h150v150h-150z" fill="#ffcf4c"/><g fill="#000"><path d="m16.4 14.3c.5523 0 1 .4477 1 1 0 .5128-.3861.9355-.8834.9933l-.1166.0067h-8.80002c-.55229 0-1-.4477-1-1 0-.5128.38604-.9355.88337-.9933l.11663-.0067z"/><path d="m8.71101 7.70001c.55229 0 1 .44772 1 1 0 .51284-.38604.93551-.88338.99327l-.12762.00673c-.55228 0-1-.44771-1-1 0-.51283.38604-.9355.88338-.99327z"/><path d="m15.311 7.70001c.5523 0 1 .44772 1 1 0 .51284-.386.93551-.8833.99327l-.1277.00673c-.5522 0-1-.44771-1-1 0-.51283.3861-.9355.8834-.99327z"/></g></g></svg>