<svg width="24" height="24" viewBox="0 0 24 24" fill="none" xmlns="http://www.w3.org/2000/svg">
<path fill-rule="evenodd" clip-rule="evenodd" d="M12 0C5.37258 0 0 5.37258 0 12C0 18.6274 5.37258 24 12 24C18.6274 24 24 18.6274 24 12C24 5.37258 18.6274 0 12 0ZM12 2C17.5228 2 22 6.47715 22 12C22 17.5228 17.5228 22 12 22C6.47715 22 2 17.5228 2 12C2 6.47715 6.47715 2 12 2ZM17.4 15.3C17.4 14.7477 16.9523 14.3 16.4 14.3H7.6L7.48338 14.3067C6.98604 14.3645 6.6 14.7872 6.6 15.3C6.6 15.8523 7.04772 16.3 7.6 16.3H16.4L16.5166 16.2933C17.014 16.2355 17.4 15.8128 17.4 15.3ZM8.711 7.7C9.26328 7.7 9.711 8.14771 9.711 8.7C9.711 9.21284 9.32496 9.63551 8.82762 9.69327L8.7 9.7C8.14771 9.7 7.7 9.25229 7.7 8.7C7.7 8.18716 8.08604 7.76449 8.58338 7.70673L8.711 7.7ZM16.311 8.7C16.311 8.14771 15.8633 7.7 15.311 7.7L15.1834 7.70673C14.686 7.76449 14.3 8.18716 14.3 8.7C14.3 9.25229 14.7477 9.7 15.3 9.7L15.4276 9.69327C15.925 9.63551 16.311 9.21284 16.311 8.7Z" />
<mask id="mask0" mask-type="alpha" maskUnits="userSpaceOnUse" x="0" y="0" width="24" height="24">
<path fill-rule="evenodd" clip-rule="evenodd" d="M12 0C5.37258 0 0 5.37258 0 12C0 18.6274 5.37258 24 12 24C18.6274 24 24 18.6274 24 12C24 5.37258 18.6274 0 12 0ZM12 2C17.5228 2 22 6.47715 22 12C22 17.5228 17.5228 22 12 22C6.47715 22 2 17.5228 2 12C2 6.47715 6.47715 2 12 2ZM17.4 15.3C17.4 14.7477 16.9523 14.3 16.4 14.3H7.6L7.48338 14.3067C6.98604 14.3645 6.6 14.7872 6.6 15.3C6.6 15.8523 7.04772 16.3 7.6 16.3H16.4L16.5166 16.2933C17.014 16.2355 17.4 15.8128 17.4 15.3ZM8.711 7.7C9.26328 7.7 9.711 8.14771 9.711 8.7C9.711 9.21284 9.32496 9.63551 8.82762 9.69327L8.7 9.7C8.14771 9.7 7.7 9.25229 7.7 8.7C7.7 8.18716 8.08604 7.76449 8.58338 7.70673L8.711 7.7ZM16.311 8.7C16.311 8.14771 15.8633 7.7 15.311 7.7L15.1834 7.70673C14.686 7.76449 14.3 8.18716 14.3 8.7C14.3 9.25229 14.7477 9.7 15.3 9.7L15.4276 9.69327C15.925 9.63551 16.311 9.21284 16.311 8.7Z" />
</mask>
<g mask="url(#mask0)">
</g>
</svg>
