<svg width="24" height="24" viewBox="0 0 24 24" fill="none" xmlns="http://www.w3.org/2000/svg">
<path fill-rule="evenodd" clip-rule="evenodd" d="M10.2857 10.2857V0H0V10.2857H10.2857ZM24 10.2857V0H13.7143V10.2857H24ZM3.42857 6.85714H6.85714V3.42857H3.42857V6.85714ZM20.5714 6.85714H17.1429V3.42857H20.5714V6.85714ZM10.2857 13.7143V24H0V13.7143H10.2857ZM17.1429 24V18.8571H18.8571V20.5714H24V13.7143H22.2857V15.4286H18.8571V13.7143H13.7143V24H17.1429ZM3.42857 20.5714H6.85714V17.1429H3.42857V20.5714ZM24 24V22.2857H22.2857V24H24ZM20.5714 22.2857V24H18.8571V22.2857H20.5714Z" fill="white"/>
<mask id="mask0" mask-type="alpha" maskUnits="userSpaceOnUse" x="0" y="0" width="24" height="24">
<path fill-rule="evenodd" clip-rule="evenodd" d="M10.2857 10.2857V0H0V10.2857H10.2857ZM24 10.2857V0H13.7143V10.2857H24ZM3.42857 6.85714H6.85714V3.42857H3.42857V6.85714ZM20.5714 6.85714H17.1429V3.42857H20.5714V6.85714ZM10.2857 13.7143V24H0V13.7143H10.2857ZM17.1429 24V18.8571H18.8571V20.5714H24V13.7143H22.2857V15.4286H18.8571V13.7143H13.7143V24H17.1429ZM3.42857 20.5714H6.85714V17.1429H3.42857V20.5714ZM24 24V22.2857H22.2857V24H24ZM20.5714 22.2857V24H18.8571V22.2857H20.5714Z" fill="white"/>
</mask>
<g mask="url(#mask0)">
</g>
</svg>
