<svg fill="none" height="24" viewBox="0 0 24 24" width="24" xmlns="http://www.w3.org/2000/svg" xmlns:xlink="http://www.w3.org/1999/xlink"><mask id="a" height="24" maskUnits="userSpaceOnUse" width="24" x="0" y="0"><path d="m12 0c-6.62742 0-12 5.37258-12 12 0 6.6274 5.37258 12 12 12 6.6274 0 12-5.3726 12-12 0-6.62742-5.3726-12-12-12z" fill="#fff"/></mask><path d="m12 0c-6.62742 0-12 5.37258-12 12 0 6.6274 5.37258 12 12 12 6.6274 0 12-5.3726 12-12 0-6.62742-5.3726-12-12-12z" fill="#fff"/><g mask="url(#a)"><path d="m-63-63h150v150h-150z" fill="#ffcf4c"/><g fill="#000"><path d="m12 13.2c1.4341 0 2.7147.4878 3.8194 1.2913.6569.4777 1.1189.9599 1.3806 1.3087.3313.4418.2418 1.0686-.2 1.4-.4079.3059-.9733.2531-1.3185-.1043l-.1827-.2162-.1216-.1313c-.2078-.2169-.4539-.4356-.7341-.6395-.786-.5715-1.671-.9087-2.6431-.9087s-1.8572.3372-2.6431.9087c-.28025.2039-.5263.4226-.73416.6395l-.16635.1826-.05642.0692c-.33137.4418-.95817.5314-1.4.2-.44182-.3314-.53137-.9582-.2-1.4.26164-.3488.72372-.831 1.38058-1.3087 1.10472-.8035 2.38525-1.2913 3.81945-1.2913z"/><path d="m8.71101 7.70001c.55229 0 1 .44772 1 1 0 .51284-.38604.93551-.88338.99327l-.12762.00673c-.55228 0-1-.44771-1-1 0-.51283.38604-.9355.88338-.99327z"/><path d="m15.311 7.70001c.5523 0 1 .44772 1 1 0 .51284-.386.93551-.8833.99327l-.1277.00673c-.5522 0-1-.44771-1-1 0-.51283.3861-.9355.8834-.99327z"/></g></g></svg>