<svg width="24" height="24" viewBox="0 0 24 24" fill="none" xmlns="http://www.w3.org/2000/svg">
<path fill-rule="evenodd" clip-rule="evenodd" d="M12 0C5.37258 0 0 5.37258 0 12C0 18.6274 5.37258 24 12 24C18.6274 24 24 18.6274 24 12C24 5.37258 18.6274 0 12 0ZM12 2C17.5228 2 22 6.47715 22 12C22 17.5228 17.5228 22 12 22C6.47715 22 2 17.5228 2 12C2 6.47715 6.47715 2 12 2ZM15.8194 14.4913C14.7147 13.6878 13.4341 13.2 12 13.2C10.5659 13.2 9.2853 13.6878 8.18058 14.4913C7.52372 14.969 7.06163 15.4512 6.8 15.8C6.46863 16.2418 6.55817 16.8686 7 17.2C7.44183 17.5314 8.06863 17.4418 8.4 17L8.45642 16.9307L8.62277 16.7482C8.83062 16.5313 9.07668 16.3126 9.35692 16.1087C10.1428 15.5372 11.0279 15.2 12 15.2C12.9721 15.2 13.8572 15.5372 14.6431 16.1087C14.9233 16.3126 15.1694 16.5313 15.3772 16.7482L15.4989 16.8795L15.6815 17.0957C16.0267 17.4531 16.5922 17.5059 17 17.2C17.4418 16.8686 17.5314 16.2418 17.2 15.8C16.9384 15.4512 16.4763 14.969 15.8194 14.4913ZM8.711 7.7C9.26328 7.7 9.711 8.14771 9.711 8.7C9.711 9.21284 9.32496 9.63551 8.82762 9.69327L8.7 9.7C8.14771 9.7 7.7 9.25229 7.7 8.7C7.7 8.18716 8.08604 7.76449 8.58338 7.70673L8.711 7.7ZM16.311 8.7C16.311 8.14771 15.8633 7.7 15.311 7.7L15.1834 7.70673C14.686 7.76449 14.3 8.18716 14.3 8.7C14.3 9.25229 14.7477 9.7 15.3 9.7L15.4276 9.69327C15.925 9.63551 16.311 9.21284 16.311 8.7Z"/>
<mask id="mask0" mask-type="alpha" maskUnits="userSpaceOnUse" x="0" y="0" width="24" height="24">
<path fill-rule="evenodd" clip-rule="evenodd" d="M12 0C5.37258 0 0 5.37258 0 12C0 18.6274 5.37258 24 12 24C18.6274 24 24 18.6274 24 12C24 5.37258 18.6274 0 12 0ZM12 2C17.5228 2 22 6.47715 22 12C22 17.5228 17.5228 22 12 22C6.47715 22 2 17.5228 2 12C2 6.47715 6.47715 2 12 2ZM15.8194 14.4913C14.7147 13.6878 13.4341 13.2 12 13.2C10.5659 13.2 9.2853 13.6878 8.18058 14.4913C7.52372 14.969 7.06163 15.4512 6.8 15.8C6.46863 16.2418 6.55817 16.8686 7 17.2C7.44183 17.5314 8.06863 17.4418 8.4 17L8.45642 16.9307L8.62277 16.7482C8.83062 16.5313 9.07668 16.3126 9.35692 16.1087C10.1428 15.5372 11.0279 15.2 12 15.2C12.9721 15.2 13.8572 15.5372 14.6431 16.1087C14.9233 16.3126 15.1694 16.5313 15.3772 16.7482L15.4989 16.8795L15.6815 17.0957C16.0267 17.4531 16.5922 17.5059 17 17.2C17.4418 16.8686 17.5314 16.2418 17.2 15.8C16.9384 15.4512 16.4763 14.969 15.8194 14.4913ZM8.711 7.7C9.26328 7.7 9.711 8.14771 9.711 8.7C9.711 9.21284 9.32496 9.63551 8.82762 9.69327L8.7 9.7C8.14771 9.7 7.7 9.25229 7.7 8.7C7.7 8.18716 8.08604 7.76449 8.58338 7.70673L8.711 7.7ZM16.311 8.7C16.311 8.14771 15.8633 7.7 15.311 7.7L15.1834 7.70673C14.686 7.76449 14.3 8.18716 14.3 8.7C14.3 9.25229 14.7477 9.7 15.3 9.7L15.4276 9.69327C15.925 9.63551 16.311 9.21284 16.311 8.7Z"/>
</mask>
<g mask="url(#mask0)">
</g>
</svg>
