<svg width="24" height="24" viewBox="0 0 24 24" fill="none" xmlns="http://www.w3.org/2000/svg">
<path fill-rule="evenodd" clip-rule="evenodd" d="M17.5575 20.1569C17.2419 20.1569 16.9862 19.9012 16.9862 19.5856C16.9862 19.3994 17.0756 19.2338 17.2131 19.1294L17.2144 19.1281C19.4225 17.5006 20.8394 14.91 20.8394 11.9888C20.8394 7.105 16.88 3.14562 11.9963 3.14562C11.5363 3.14562 11.0844 3.18062 10.6431 3.24875L10.6925 3.2425V15.7494C10.6925 16.065 10.4369 16.3206 10.1213 16.3206C9.80562 16.3206 9.55 16.065 9.55 15.7494V2.74937C9.55125 2.47562 9.74563 2.24687 10.0031 2.19312L10.0069 2.1925C10.5938 2.07 11.2681 2 11.9594 2C17.4825 2 21.9594 6.47687 21.9594 12C21.9594 15.2894 20.3713 18.2081 17.9194 20.0306L17.8925 20.0494C17.8 20.1163 17.6844 20.1562 17.5594 20.1562H17.5569L17.5575 20.1569ZM13.8362 7.55C14.2344 7.55 14.5575 7.87313 14.5575 8.27125C14.5575 8.66938 14.2344 8.9925 13.8362 8.9925C13.4381 8.9925 13.115 8.66938 13.115 8.27125C13.115 7.87313 13.4381 7.55 13.8362 7.55ZM2 11.9856C2 17.5013 6.465 21.9737 11.9788 21.9856H11.9794C12.6362 21.9856 13.3006 21.9212 13.9506 21.8L13.9544 21.7994C14.21 21.7425 14.4006 21.5144 14.4006 21.2419V21.2288V12.5356C14.4006 12.22 14.145 11.9644 13.8294 11.9644C13.5138 11.9644 13.2581 12.22 13.2581 12.5356V20.75L13.3075 20.7437C12.8663 20.8119 12.4144 20.8469 11.9544 20.8469C7.07063 20.8469 3.11125 16.8875 3.11125 12.0037C3.11125 9.0825 4.52812 6.49188 6.73625 4.86438L6.7375 4.86312C6.8775 4.75937 6.96875 4.59187 6.96875 4.40375C6.96875 4.08812 6.71312 3.83187 6.39687 3.83187C6.26937 3.83187 6.15125 3.87375 6.0575 3.94313L6.03125 3.96187C3.58437 5.78437 2 8.7 2 11.9856Z" fill="white"/>
<mask id="mask0" mask-type="alpha" maskUnits="userSpaceOnUse" x="2" y="2" width="20" height="20">
<path fill-rule="evenodd" clip-rule="evenodd" d="M17.5575 20.1569C17.2419 20.1569 16.9862 19.9012 16.9862 19.5856C16.9862 19.3994 17.0756 19.2338 17.2131 19.1294L17.2144 19.1281C19.4225 17.5006 20.8394 14.91 20.8394 11.9888C20.8394 7.105 16.88 3.14562 11.9963 3.14562C11.5363 3.14562 11.0844 3.18062 10.6431 3.24875L10.6925 3.2425V15.7494C10.6925 16.065 10.4369 16.3206 10.1213 16.3206C9.80562 16.3206 9.55 16.065 9.55 15.7494V2.74937C9.55125 2.47562 9.74563 2.24687 10.0031 2.19312L10.0069 2.1925C10.5938 2.07 11.2681 2 11.9594 2C17.4825 2 21.9594 6.47687 21.9594 12C21.9594 15.2894 20.3713 18.2081 17.9194 20.0306L17.8925 20.0494C17.8 20.1163 17.6844 20.1562 17.5594 20.1562H17.5569L17.5575 20.1569ZM13.8362 7.55C14.2344 7.55 14.5575 7.87313 14.5575 8.27125C14.5575 8.66938 14.2344 8.9925 13.8362 8.9925C13.4381 8.9925 13.115 8.66938 13.115 8.27125C13.115 7.87313 13.4381 7.55 13.8362 7.55ZM2 11.9856C2 17.5013 6.465 21.9737 11.9788 21.9856H11.9794C12.6362 21.9856 13.3006 21.9212 13.9506 21.8L13.9544 21.7994C14.21 21.7425 14.4006 21.5144 14.4006 21.2419V21.2288V12.5356C14.4006 12.22 14.145 11.9644 13.8294 11.9644C13.5138 11.9644 13.2581 12.22 13.2581 12.5356V20.75L13.3075 20.7437C12.8663 20.8119 12.4144 20.8469 11.9544 20.8469C7.07063 20.8469 3.11125 16.8875 3.11125 12.0037C3.11125 9.0825 4.52812 6.49188 6.73625 4.86438L6.7375 4.86312C6.8775 4.75937 6.96875 4.59187 6.96875 4.40375C6.96875 4.08812 6.71312 3.83187 6.39687 3.83187C6.26937 3.83187 6.15125 3.87375 6.0575 3.94313L6.03125 3.96187C3.58437 5.78437 2 8.7 2 11.9856Z" fill="white"/>
</mask>
<g mask="url(#mask0)">
</g>
</svg>
