<svg width="24" height="24" viewBox="0 0 24 24" fill="none" xmlns="http://www.w3.org/2000/svg">
<path fill-rule="evenodd" clip-rule="evenodd" d="M12 0C5.37258 0 0 5.37258 0 12C0 18.6274 5.37258 24 12 24C18.6274 24 24 18.6274 24 12C24 5.37258 18.6274 0 12 0ZM12 2C17.5228 2 22 6.47715 22 12C22 17.5228 17.5228 22 12 22C6.47715 22 2 17.5228 2 12C2 6.47715 6.47715 2 12 2ZM17 13.4C16.5582 13.0686 15.9314 13.1582 15.6 13.6L15.5436 13.6693L15.3772 13.8518C15.1694 14.0687 14.9233 14.2874 14.6431 14.4913C13.8572 15.0628 12.9721 15.4 12 15.4C11.0279 15.4 10.1428 15.0628 9.35692 14.4913C9.07668 14.2874 8.83062 14.0687 8.62277 13.8518L8.50113 13.7205L8.3185 13.5043C7.97329 13.1469 7.40784 13.0941 7 13.4C6.55817 13.7314 6.46863 14.3582 6.8 14.8C7.06163 15.1488 7.52372 15.631 8.18058 16.1087C9.2853 16.9122 10.5659 17.4 12 17.4C13.4341 17.4 14.7147 16.9122 15.8194 16.1087C16.4763 15.631 16.9384 15.1488 17.2 14.8C17.5314 14.3582 17.4418 13.7314 17 13.4ZM8.711 7.7C9.26328 7.7 9.711 8.14771 9.711 8.7C9.711 9.21284 9.32496 9.63551 8.82762 9.69327L8.7 9.7C8.14771 9.7 7.7 9.25229 7.7 8.7C7.7 8.18716 8.08604 7.76449 8.58338 7.70673L8.711 7.7ZM16.311 8.7C16.311 8.14771 15.8633 7.7 15.311 7.7L15.1834 7.70673C14.686 7.76449 14.3 8.18716 14.3 8.7C14.3 9.25229 14.7477 9.7 15.3 9.7L15.4276 9.69327C15.925 9.63551 16.311 9.21284 16.311 8.7Z" />
<mask id="mask0" mask-type="alpha" maskUnits="userSpaceOnUse" x="0" y="0" width="24" height="24">
<path fill-rule="evenodd" clip-rule="evenodd" d="M12 0C5.37258 0 0 5.37258 0 12C0 18.6274 5.37258 24 12 24C18.6274 24 24 18.6274 24 12C24 5.37258 18.6274 0 12 0ZM12 2C17.5228 2 22 6.47715 22 12C22 17.5228 17.5228 22 12 22C6.47715 22 2 17.5228 2 12C2 6.47715 6.47715 2 12 2ZM17 13.4C16.5582 13.0686 15.9314 13.1582 15.6 13.6L15.5436 13.6693L15.3772 13.8518C15.1694 14.0687 14.9233 14.2874 14.6431 14.4913C13.8572 15.0628 12.9721 15.4 12 15.4C11.0279 15.4 10.1428 15.0628 9.35692 14.4913C9.07668 14.2874 8.83062 14.0687 8.62277 13.8518L8.50113 13.7205L8.3185 13.5043C7.97329 13.1469 7.40784 13.0941 7 13.4C6.55817 13.7314 6.46863 14.3582 6.8 14.8C7.06163 15.1488 7.52372 15.631 8.18058 16.1087C9.2853 16.9122 10.5659 17.4 12 17.4C13.4341 17.4 14.7147 16.9122 15.8194 16.1087C16.4763 15.631 16.9384 15.1488 17.2 14.8C17.5314 14.3582 17.4418 13.7314 17 13.4ZM8.711 7.7C9.26328 7.7 9.711 8.14771 9.711 8.7C9.711 9.21284 9.32496 9.63551 8.82762 9.69327L8.7 9.7C8.14771 9.7 7.7 9.25229 7.7 8.7C7.7 8.18716 8.08604 7.76449 8.58338 7.70673L8.711 7.7ZM16.311 8.7C16.311 8.14771 15.8633 7.7 15.311 7.7L15.1834 7.70673C14.686 7.76449 14.3 8.18716 14.3 8.7C14.3 9.25229 14.7477 9.7 15.3 9.7L15.4276 9.69327C15.925 9.63551 16.311 9.21284 16.311 8.7Z" />
</mask>
<g mask="url(#mask0)">
</g>
</svg>
