<svg fill="none" height="24" viewBox="0 0 24 24" width="24" xmlns="http://www.w3.org/2000/svg" xmlns:xlink="http://www.w3.org/1999/xlink"><mask id="a" height="24" maskUnits="userSpaceOnUse" width="24" x="0" y="0"><path d="m12 0c-6.62742 0-12 5.37258-12 12 0 6.6274 5.37258 12 12 12 6.6274 0 12-5.3726 12-12 0-6.62742-5.3726-12-12-12z" fill="#fff"/></mask><path d="m12 0c-6.62742 0-12 5.37258-12 12 0 6.6274 5.37258 12 12 12 6.6274 0 12-5.3726 12-12 0-6.62742-5.3726-12-12-12z" fill="#fff"/><g mask="url(#a)"><path d="m-63-63h150v150h-150z" fill="#ffcf4c"/><g fill="#000"><path d="m15.6 13.6c.3313-.4418.9581-.5314 1.4-.2.4418.3314.5313.9582.2 1.4-.2617.3489-.7237.831-1.3806 1.3087-1.1047.8035-2.3853 1.2913-3.8194 1.2913-1.4342 0-2.71473-.4878-3.81945-1.2913-.65686-.4777-1.11894-.9598-1.38058-1.3087-.33137-.4418-.24182-1.0686.2-1.4.40784-.3059.9733-.2531 1.31851.1043l.18262.2162.12164.1314c.20786.2168.45391.4356.73416.6394.7859.5715 1.671.9087 2.6431.9087s1.8571-.3372 2.6431-.9087c.2802-.2038.5263-.4226.7341-.6394l.1664-.1826z"/><path d="m8.71101 7.70001c.55229 0 1 .44772 1 1 0 .51284-.38604.93551-.88338.99327l-.12762.00673c-.55228 0-1-.44771-1-1 0-.51283.38604-.9355.88338-.99327z"/><path d="m15.311 7.70001c.5523 0 1 .44772 1 1 0 .51284-.386.93551-.8833.99327l-.1277.00673c-.5522 0-1-.44771-1-1 0-.51283.3861-.9355.8834-.99327z"/></g></g></svg>